<?xml version="1.0" encoding="utf-8"?>
<!-- Generator: Adobe Illustrator 17.0.0, SVG Export Plug-In . SVG Version: 6.00 Build 0)  -->
<!DOCTYPE svg PUBLIC "-//W3C//DTD SVG 1.1//EN" "http://www.w3.org/Graphics/SVG/1.1/DTD/svg11.dtd">
<svg version="1.1" id="Layer_1" xmlns="http://www.w3.org/2000/svg" xmlns:xlink="http://www.w3.org/1999/xlink" x="0px" y="0px"
	 width="214.668px" height="70px" viewBox="0 0 214.668 70" enable-background="new 0 0 214.668 70" xml:space="preserve">
<g>
	<g>
		<path fill="#E8875A" d="M92.888,61.659c0.114-0.346,0.181-0.593,0.277-0.969c0.098-0.391,0.249-1.006,0.249-1.006
			s0.159,0.682,0.212,0.924c0.112,0.503,0.284,1.051,0.284,1.051H92.888z M92.882,58.535l-1.712,5.235h1.097l0.368-1.24h1.533
			l0.369,1.24h1.126l-1.645-5.235H92.882z"/>
		<path fill="#E8875A" d="M102.491,59.392h0.375c0.255,0,0.473,0.03,0.595,0.074c0.246,0.09,0.374,0.315,0.374,0.639
			c0,0.218-0.074,0.406-0.203,0.525c-0.143,0.128-0.338,0.172-0.79,0.172h-0.353L102.491,59.392L102.491,59.392z M101.461,58.55
			v5.221h1.03v-2.179c0.067,0.008,0.112,0.023,0.165,0.045c0.187,0.083,0.344,0.338,0.864,1.277
			c0.203,0.368,0.285,0.511,0.489,0.857h1.239c0,0-0.953-1.653-1.254-2.028c-0.068-0.089-0.114-0.134-0.218-0.218
			c0.646-0.014,1.165-0.661,1.165-1.442c0-0.916-0.609-1.533-1.533-1.533C103.407,58.55,101.461,58.55,101.461,58.55z"/>
		<polygon fill="#E8875A" points="110.498,58.55 110.498,59.42 111.774,59.42 111.774,63.771 112.841,63.771 112.841,59.42 
			114.088,59.42 114.26,58.55 		"/>
		<polygon fill="#E8875A" points="120.053,58.55 120.053,63.771 123.094,63.771 123.094,62.869 121.119,62.869 121.119,61.472 
			122.598,61.472 122.598,60.615 121.104,60.615 121.104,59.406 122.891,59.406 123.027,58.55 		"/>
		<path fill="#E8875A" d="M132.657,58.917c-0.458-0.332-1.104-0.525-1.744-0.525c-1.103,0-1.869,0.661-1.869,1.615
			c0,0.293,0.074,0.564,0.218,0.796c0.187,0.315,0.511,0.519,1.03,0.662l0.578,0.157c0.466,0.128,0.684,0.338,0.684,0.676
			c0,0.466-0.316,0.713-0.917,0.713c-0.525,0-0.946-0.165-1.435-0.421l-0.391,0.819c0.526,0.299,1.187,0.472,1.78,0.472
			c1.299,0,2.157-0.698,2.157-1.757c0-0.774-0.466-1.322-1.322-1.555l-0.631-0.173c-0.436-0.121-0.579-0.255-0.579-0.525
			c0-0.353,0.301-0.601,0.73-0.601c0.391,0,0.744,0.112,1.217,0.397L132.657,58.917z"/>
		<path fill="#E8875A" d="M149.344,59.068c-0.458-0.397-1.028-0.601-1.66-0.601c-0.495,0-0.886,0.114-1.268,0.369
			c-0.73,0.488-1.09,1.269-1.09,2.374c0,0.781,0.174,1.338,0.556,1.826c0.421,0.542,1,0.796,1.782,0.796
			c0.614,0,1.201-0.151,1.735-0.466v-2.494h-2.022l0.137,0.855h0.796v1.187c-0.174,0.09-0.363,0.128-0.595,0.128
			c-0.338,0-0.623-0.104-0.818-0.293c-0.262-0.263-0.39-0.744-0.39-1.488c0-0.781,0.089-1.344,0.441-1.682
			c0.181-0.173,0.444-0.263,0.752-0.263c0.397,0,0.752,0.128,1.089,0.406L149.344,59.068z"/>
		<path fill="#E8875A" d="M156.767,59.392h0.377c0.255,0,0.472,0.03,0.593,0.074c0.248,0.09,0.375,0.315,0.375,0.639
			c0,0.218-0.074,0.406-0.203,0.525c-0.143,0.128-0.339,0.172-0.79,0.172h-0.355v-1.409H156.767z M155.739,58.55v5.221h1.028v-2.179
			c0.068,0.008,0.114,0.023,0.166,0.045c0.188,0.083,0.346,0.338,0.864,1.277c0.203,0.368,0.285,0.511,0.488,0.857h1.24
			c0,0-0.955-1.653-1.254-2.028c-0.067-0.089-0.114-0.134-0.218-0.218c0.646-0.014,1.164-0.661,1.164-1.442
			c0-0.916-0.608-1.533-1.533-1.533C157.684,58.55,155.739,58.55,155.739,58.55z"/>
		<path fill="#E8875A" d="M166.541,61.659c0.112-0.346,0.181-0.593,0.277-0.969c0.097-0.391,0.246-1.006,0.246-1.006
			s0.159,0.682,0.212,0.924c0.112,0.503,0.285,1.051,0.285,1.051H166.541z M166.535,58.535l-1.712,5.235h1.097l0.369-1.24h1.533
			l0.369,1.24h1.128l-1.646-5.235H166.535z"/>
		<polygon fill="#E8875A" points="175.113,58.55 175.113,63.771 176.164,63.771 176.164,61.448 177.494,61.448 177.494,60.592 
			176.164,60.592 176.164,59.398 177.824,59.398 177.946,58.55 		"/>
		<rect x="183.88" y="58.55" fill="#E8875A" width="1.097" height="5.221"/>
		<path fill="#E8875A" d="M194.786,58.85c-0.285-0.248-0.804-0.413-1.322-0.413c-0.841,0-1.593,0.45-1.998,1.209
			c-0.24,0.45-0.354,0.969-0.354,1.623c0,0.766,0.212,1.397,0.632,1.869c0.428,0.489,0.984,0.721,1.706,0.721
			c0.593,0,1.036-0.15,1.45-0.488l-0.481-0.662c-0.308,0.249-0.586,0.338-0.894,0.338c-0.45,0-0.796-0.203-1.006-0.586
			c-0.157-0.286-0.218-0.684-0.218-1.397c0-0.609,0.089-1.044,0.293-1.344c0.188-0.277,0.534-0.45,0.886-0.45
			c0.293,0,0.572,0.098,0.833,0.293L194.786,58.85z"/>
		<path fill="#E8875A" d="M202.072,61.659c0.112-0.346,0.181-0.593,0.277-0.969c0.098-0.391,0.249-1.006,0.249-1.006
			s0.157,0.682,0.209,0.924c0.114,0.503,0.285,1.051,0.285,1.051H202.072z M202.064,58.535l-1.712,5.235h1.097l0.369-1.24h1.533
			l0.369,1.24h1.128l-1.646-5.235H202.064z"/>
		<path fill="#E8875A" d="M214.152,58.917c-0.458-0.332-1.103-0.525-1.743-0.525c-1.103,0-1.869,0.661-1.869,1.615
			c0,0.293,0.074,0.564,0.218,0.796c0.187,0.315,0.51,0.519,1.03,0.662l0.578,0.157c0.466,0.128,0.682,0.338,0.682,0.676
			c0,0.466-0.315,0.713-0.917,0.713c-0.526,0-0.946-0.165-1.435-0.421l-0.391,0.819c0.525,0.299,1.187,0.472,1.78,0.472
			c1.299,0,2.156-0.698,2.156-1.757c0-0.774-0.464-1.322-1.322-1.555l-0.63-0.173c-0.436-0.121-0.579-0.255-0.579-0.525
			c0-0.353,0.301-0.601,0.729-0.601c0.391,0,0.744,0.112,1.218,0.397L214.152,58.917z"/>
	</g>
	<g>
		<path fill="#E07840" d="M92.141,36.504c0.483,0.862,0.654,1.964,0.654,4.514v12.301h4.514V40.467
			c0.999-0.897,2.171-1.344,3.033-1.344c1.275,0,1.586,0.516,1.586,2.722v11.474h4.376V40.639c0.999-0.897,2.205-1.482,3.068-1.482
			c1.206,0,1.448,0.414,1.448,2.516v11.646h4.481V40.776c0-2.411-0.31-3.446-1.311-4.308c-0.792-0.689-2.102-1.103-3.481-1.103
			c-1.929,0-3.376,0.654-4.997,2.309c-0.206-0.31-0.448-0.621-0.689-0.862c-0.93-0.965-2.135-1.448-3.584-1.448
			c-1.619,0-3.1,0.619-4.308,1.791c-0.173-0.895-0.31-1.309-0.621-1.791L92.141,36.504z"/>
		<path fill="#E07840" d="M123.909,42.568v-0.07c0-2.446,0.999-3.824,2.757-3.824c0.93,0,1.586,0.344,2.032,1.035
			c0.415,0.654,0.551,1.344,0.551,2.652v0.206H123.909L123.909,42.568z M132.042,48.599c-1.414,1.171-2.895,1.757-4.481,1.757
			c-2.378,0-3.722-1.551-3.722-4.273v-0.138h10.201c0-0.31,0-0.689,0-1.068c0-3.686-0.724-6.065-2.344-7.719
			c-1.137-1.171-3.067-1.86-5.1-1.86c-2.344,0-4.1,0.757-5.548,2.378c-1.552,1.722-2.206,3.824-2.206,6.994
			c0,5.547,3.274,9.131,8.339,9.131c2.483,0,4.619-0.792,6.652-2.446L132.042,48.599z"/>
		<path fill="#E07840" d="M141.824,27.82l-4.721,1.068c0.172,1.584,0.24,2.998,0.24,5.305v13.163c0,2.516,0.068,3.067,0.413,3.962
			c0.551,1.482,2.138,2.413,4.101,2.413c1,0,1.964-0.173,2.757-0.483l-0.792-2.757c-0.24,0.068-0.343,0.068-0.517,0.068
			c-0.378,0-0.757-0.172-0.93-0.483c-0.276-0.483-0.311-0.897-0.311-3.927V32.404C142.064,29.923,141.995,28.785,141.824,27.82z"/>
		<path fill="#E07840" d="M156.598,31.749l1.482-2.86c-1.414-0.792-2.654-1.103-4.17-1.103c-3.619,0-5.686,1.998-5.686,5.479
			c0,0.792,0.068,1.689,0.172,2.413h-1.687v3.17h1.584v14.473h4.514V38.847h3.274l1.171-3.17h-4.481v-2.516
			c0-1.275,0.759-1.998,1.93-1.998C155.255,31.163,155.598,31.266,156.598,31.749z"/>
		<path fill="#E07840" d="M167.033,45.601l-0.068,3.79c-0.689,0.757-1.549,1.206-2.411,1.206c-1.173,0-2.033-0.93-2.033-2.308
			c0-2.102,1.103-2.689,4.308-2.689H167.033z M157.97,37.779l1.965,3.308c1.895-1.276,3.617-1.998,5.1-1.998
			c1.689,0,2.068,0.654,2.068,2.619v0.724c-0.378-0.035-0.69-0.035-1.033-0.035c-5.618,0-8.479,1.929-8.479,6.065
			c0,3.514,2.138,5.513,6.065,5.513c1.449,0,2.689-0.344,3.55-0.965c0.344-0.241,0.724-0.586,1.068-0.93
			c0.449,0.897,1.414,1.689,2.481,2.136l2.446-2.827c-1.344-0.999-1.654-1.722-1.654-3.617c0-0.103,0-0.206,0-0.31l0.104-5.927
			c0.034-1.895-0.07-2.446-0.311-3.17c-0.689-1.964-2.722-3.067-5.686-3.067c-1.619,0-3.1,0.31-4.825,1.033
			C159.589,36.849,158.9,37.193,157.97,37.779z"/>
		<path fill="#E07840" d="M192.025,41.685c-1.144-0.56-2.459-1.168-4.455-1.168c-2.898,0-4.819,1.631-4.819,4.064
			c0,0.804,0.268,1.703,0.704,2.238c0.439,0.535,1.462,1.119,2.289,1.266l1.46,0.268c1.313,0.244,1.922,0.681,1.922,1.533
			c0,0.804-0.73,1.411-1.655,1.411c-1.41,0-3.14-0.804-4.137-1.411l-1.169,2.385c1.826,0.95,3.505,1.436,5.039,1.436
			c3.188,0,5.331-1.753,5.331-4.332c0-0.827-0.218-1.533-0.682-2.117c-0.437-0.559-0.95-1.022-2.483-1.411l-1.508-0.39
			c-1.144-0.293-1.558-0.632-1.558-1.266c0-0.73,0.632-1.217,1.582-1.217c0.925,0,1.826,0.267,3.067,0.901L192.025,41.685z"/>
		<path fill="#E07840" d="M195.708,50.439c-0.864,0-1.566,0.702-1.566,1.566c0,0.882,0.702,1.602,1.584,1.602
			c0.864,0,1.584-0.72,1.584-1.602C197.31,51.14,196.59,50.439,195.708,50.439z"/>
		<path fill="#E07840" d="M205.686,47.867l-0.049,2.677c-0.486,0.535-1.095,0.851-1.704,0.851c-0.827,0-1.436-0.658-1.436-1.631
			c0-1.485,0.779-1.899,3.042-1.899L205.686,47.867L205.686,47.867z M199.284,42.343l1.388,2.336c1.338-0.901,2.556-1.41,3.601-1.41
			c1.193,0,1.46,0.462,1.46,1.849v0.511c-0.268-0.023-0.486-0.023-0.73-0.023c-3.967,0-5.986,1.364-5.986,4.282
			c0,2.482,1.509,3.894,4.283,3.894c1.023,0,1.899-0.243,2.508-0.681c0.243-0.17,0.511-0.413,0.755-0.658
			c0.316,0.632,0.997,1.193,1.751,1.508l1.727-1.995c-0.95-0.706-1.168-1.217-1.168-2.556c0-0.074,0-0.146,0-0.218l0.074-4.186
			c0.023-1.339-0.05-1.727-0.221-2.24c-0.488-1.387-1.922-2.166-4.016-2.166c-1.144,0-2.191,0.219-3.407,0.73
			C200.429,41.685,199.942,41.93,199.284,42.343z"/>
		<path fill="#E07840" d="M213.064,50.439c-0.863,0-1.566,0.702-1.566,1.566c0,0.882,0.703,1.602,1.586,1.602
			c0.863,0,1.584-0.72,1.584-1.602C214.668,51.14,213.946,50.439,213.064,50.439z"/>
	</g>
	<path fill="#D77B1A" d="M72.836,36.838c5.858,10.351,8.862,15.468,11.307,19.999c0.916,1.698,1.551,2.965,1.551,4.31
		c0,1.348-1.482,2.56-3.301,2.762c-1.819,0.203-29.2,0-29.2,0h-1.869v-1.282c0,0,2.696-1.119,4.002-2.423
		c1.304-1.304,2.56-2.558,3.305-4.746c0.746-2.187,0.882-2.187,0.882-4.373c0-2.185-1.814-3.118-3.07-3.491
		c-1.254-0.373-2.049-0.51-2.745-0.51h-2.051L72.836,36.838z"/>
	<path fill="#461D1E" d="M31.098,3.645c0.642-1.122,3.338-3.78,5.767-3.639c1.615,0.094,4.563,1.734,5.66,4.051
		c2.327,4.922,4.198,8.521,5.004,10.619c1.093-1.651,3.486-6.492,6.049-7.072c1.577-0.357,2.496,0.444,3.167,1.549
		c3.366,5.547,8.484,14.098,14.609,24.987l-12.363,6.325c0,0-4.785-9.48-6.599-12.784c-1.814-3.305-2.56,1.627-2.56,1.627v34.603
		h-7.307h-7.492V28.424c-0.321-1.257-1.072-3.125-2.374-0.755c-1.138,2.075-5.262,9.984-8.175,15.588l8.48,0.15L24.103,63.9
		c0,0-18.984,0.203-20.803,0C1.482,63.698,0,62.486,0,61.139c0-1.347,0.742-2.56,1.549-4.31C1.936,55.985,29.111,7.116,31.098,3.645
		z"/>
</g>
</svg>
